<svg xmlns="http://www.w3.org/2000/svg" viewBox="0 0 520 112" role="img" aria-labelledby="title desc">
  <title id="title">Launell Govender logo</title>
  <desc id="desc">Logo for Launell Govender, key accounts expert.</desc>
  <defs>
    <linearGradient id="mark" x1="8" y1="8" x2="96" y2="96" gradientUnits="userSpaceOnUse">
      <stop offset="0" stop-color="#12352d"/>
      <stop offset="0.55" stop-color="#1f7a53"/>
      <stop offset="1" stop-color="#176b89"/>
    </linearGradient>
  </defs>
  <rect x="4" y="4" width="104" height="104" rx="24" fill="url(#mark)"/>
  <path d="M27 74V31h10v34h19v9H27Z" fill="#fff"/>
  <path d="M68 75c-13 0-22-9-22-22 0-12 9-22 23-22 8 0 15 4 19 9l-8 6c-2-4-6-6-11-6-8 0-13 6-13 13 0 8 6 14 14 14 4 0 8-2 10-5v-4H67v-8h24v16c-5 6-13 9-23 9Z" fill="#fff"/>
  <path d="M75 22c8 2 15 8 19 16" fill="none" stroke="#dbead7" stroke-width="4" stroke-linecap="round"/>
  <path d="M20 64c4 10 12 18 23 22" fill="none" stroke="#dbead7" stroke-width="4" stroke-linecap="round"/>
  <path d="M84 20c-9 1-14 6-17 14 9-1 15-6 17-14Z" fill="#dbead7"/>
  <text x="132" y="53" fill="#ffffff" font-family="Inter, Segoe UI, Arial, sans-serif" font-size="29" font-weight="850" letter-spacing="0">Launell Govender</text>
  <text x="134" y="80" fill="#c9ddd5" font-family="Inter, Segoe UI, Arial, sans-serif" font-size="15" font-weight="700" letter-spacing="1.2">KEY ACCOUNTS EXPERT</text>
  <path d="M133 91h250" stroke="#56a05d" stroke-width="3" stroke-linecap="round"/>
</svg>
